<?xml version="1.0" standalone="no"?>
<!DOCTYPE svg PUBLIC "-//W3C//DTD SVG 20010904//EN"
 "http://www.w3.org/TR/2001/REC-SVG-20010904/DTD/svg10.dtd">
<svg version="1.0" xmlns="http://www.w3.org/2000/svg"
 width="2048.000000pt" height="2048.000000pt" viewBox="0 0 2048.000000 2048.000000"
 preserveAspectRatio="xMidYMid meet">
<metadata>
Created by potrace 1.11, written by Peter Selinger 2001-2013
</metadata>
<g transform="translate(0.000000,2048.000000) scale(0.100000,-0.100000)"
fill="#000000" stroke="none">
<path d="M2100 10415 l0 -7995 8085 0 8085 0 0 7995 0 7995 -8085 0 -8085 0 0
-7995z m15990 0 l0 -7815 -7920 0 -7920 0 0 7815 0 7815 7920 0 7920 0 0
-7815z"/>
<path d="M10030 15234 c-883 -65 -1637 -323 -2265 -777 -328 -237 -643 -549
-876 -867 -490 -667 -790 -1487 -893 -2441 -54 -495 -46 -1145 19 -1639 77
-580 234 -1118 465 -1598 103 -214 159 -312 296 -517 159 -240 300 -413 503
-616 463 -462 995 -782 1641 -984 473 -149 964 -213 1525 -202 697 14 1295
150 1863 423 180 85 287 147 472 270 836 556 1412 1425 1599 2414 10 58 22
130 26 161 l7 57 -223 6 c-123 4 -577 6 -1008 4 l-784 -3 -23 -100 c-86 -381
-290 -732 -568 -978 -289 -255 -643 -408 -1091 -473 -147 -21 -513 -24 -655
-6 -685 91 -1207 412 -1566 964 -338 519 -514 1227 -514 2075 -1 1736 749
2860 2030 3042 545 78 1088 -14 1495 -254 449 -264 757 -701 865 -1225 11 -58
23 -115 26 -127 l4 -23 1005 0 1005 0 0 23 c-1 65 -51 339 -95 517 -115 464
-274 833 -520 1205 -622 942 -1643 1517 -2930 1650 -153 16 -703 28 -835 19z"/>
</g>
</svg>
